<svg width="435.59375" height="435.59375" viewBox="0 0 312.5 312.5" class="css-1j8o68f">
    <defs id="SvgjsDefs1082"></defs>
    <g id="SvgjsG1083" featurekey="rootContainer" transform="matrix(6.25,0,0,6.25,0,0)" fill="#111111">
        <path xmlns="http://www.w3.org/2000/svg" d="M50 25c0 8.88-3.62 15.67-10.6 20.11C35.53 47.58 29.93 50 25 50c-8.63 0-14.24-1.37-18.73-8C3.57 38 0 30.2 0 25c0-6.85 1.76-14.06 6.22-18.58S18.04 0 25 0c9.5 0 16.77 5.3 21 13.11 1.88 3.53 4 7.58 4 11.89z"></path>
    </g>
    <g id="SvgjsG1084" featurekey="symbolFeature-0" transform="matrix(0.837187986777354,0,0,0.837187986777354,114.56739267378542,55.14060425395337)" fill="#fcfcfc">
        <path xmlns="http://www.w3.org/2000/svg" style="font-size:medium;font-style:normal;font-variant:normal;font-weight:normal;font-stretch:normal;text-indent:0;text-align:start;text-decoration:none;line-height:normal;letter-spacing:normal;word-spacing:normal;text-transform:none;direction:ltr;block-progression:tb;writing-mode:lr-tb;text-anchor:start;baseline-shift:baseline;opacity:1;color:;fill:#fcfcfc;fill-opacity:1;stroke:none;stroke-width:2;marker:none;visibility:visible;display:inline;overflow:visible;enable-background:accumulate;font-family:Sans;-inkscape-font-specification:Sans" d="M 55.8125 7 A 1.0001 1.0001 0 0 0 55.09375 7.59375 L 49.4375 20 L 29 20 A 1.0001 1.0001 0 0 0 28.90625 20 A 1.0001 1.0001 0 0 0 28.1875 21.59375 C 33.457242 28.871013 35 33.994217 35 39 C 35 42.963758 33.810465 46.776201 32.5625 50.5625 C 31.314535 54.348799 30 58.106488 30 62 C 30 71.78565 38.646179 79.464331 49 79.9375 L 49 91 L 37 91 A 1.0001 1.0001 0 0 0 36.90625 91 A 1.001098 1.001098 0 1 0 37 93 L 63 93 A 1.0001 1.0001 0 1 0 63 91 L 51 91 L 51 79.9375 C 61.353822 79.464331 70 71.78565 70 62 C 70 58.106488 68.685465 54.348799 67.4375 50.5625 C 66.189535 46.776201 65 42.963758 65 39 C 65 33.994217 66.542758 28.871013 71.8125 21.59375 A 1.0001 1.0001 0 0 0 71 20 L 51.59375 20 L 56.625 9 L 68 9 A 1.0001 1.0001 0 1 0 68 7 L 56 7 A 1.0001 1.0001 0 0 0 55.90625 7 A 1.0001 1.0001 0 0 0 55.8125 7 z M 30.84375 22 L 48.5 22 L 39.21875 42.28125 C 38.448514 42.023459 37.662456 41.705911 36.875 41.3125 C 36.951033 40.552906 37 39.780655 37 39 C 37 33.980215 35.362626 28.684142 30.84375 22 z M 50.6875 22 L 69.15625 22 C 64.637374 28.684142 63 33.980215 63 39 C 63 39.97343 63.072288 40.934069 63.1875 41.875 C 61.198618 40.571428 58.786482 40 57 40 C 54.344782 40 52.057713 40.812026 49.84375 41.5625 C 47.629787 42.312974 45.48362 43.008573 43 43 C 42.427957 42.998025 41.813594 42.925581 41.1875 42.8125 L 50.6875 22 z M 57 42 C 58.851663 42 62.286792 43.07802 63.75 45.03125 C 64.240938 47.157617 64.907751 49.201003 65.5625 51.1875 C 66.814535 54.98615 68 58.561089 68 62 C 68 70.880678 59.82382 78 50 78 C 40.176181 78 32 70.880678 32 62 C 32 58.561089 33.185465 54.98615 34.4375 51.1875 C 35.260674 48.690006 36.109103 46.100151 36.59375 43.375 C 38.757741 44.37713 40.95665 44.992946 43 45 C 45.86169 45.0099 48.275225 44.222889 50.5 43.46875 C 52.724775 42.714611 54.755478 42 57 42 z "></path>
    </g>
    <g id="SvgjsG1085" featurekey="nameFeature-0" transform="matrix(3.3406828338686854,0,0,3.3406828338686854,56,117.05424557110449)" fill="#fcfcfc">
        <path d="M13.84 11.36 l0 3.84 l-4.76 0 l0 24.84 l-3.84 0 l0 -24.84 l-5.24 0 l0 -3.84 l13.84 0 z M19.587 11.36 l0 28.48 l-3.8 0 l0 -28.48 l3.8 0 z M33.614 11.36 l6.68 0 l0 28.56 l-3.76 0 l0 -22.6 l-3.56 22.68 l-1.48 0 l-0.36 -0.08 l-0.32 0.08 l-1.48 0 l-3.52 -22.68 l0 22.6 l-3.8 0 l0 -28.56 l6.72 0 l2.44 16.16 z M46.521 11.36 l0 28.48 l-3.8 0 l0 -28.48 l3.8 0 z M54.42800000000001 40.24 c-3.04 0 -5.48 -2.48 -5.48 -5.48 l0 -4.36 l3.88 0 l0 4.36 c0 0.88 0.72 1.6 1.6 1.6 s1.56 -0.72 1.56 -1.6 l0 -3.8 l-7.04 -9.72 l0 -4.96 c0 -3.04 2.44 -5.52 5.48 -5.52 c3 0 5.44 2.48 5.44 5.52 l0 4.32 l-3.88 0 l0 -4.32 c0 -0.92 -0.68 -1.6 -1.56 -1.6 s-1.6 0.68 -1.6 1.6 l0 3.64 l7.04 9.72 l0 5.12 c0 3 -2.44 5.48 -5.44 5.48 z"></path>
    </g>
</svg>